<?xml version="1.0" standalone="no"?><!DOCTYPE svg PUBLIC "-//W3C//DTD SVG 1.1//EN" "http://www.w3.org/Graphics/SVG/1.1/DTD/svg11.dtd"><svg t="1613809855262" class="icon" viewBox="0 0 1024 1024" version="1.1" xmlns="http://www.w3.org/2000/svg" p-id="7930" xmlns:xlink="http://www.w3.org/1999/xlink" width="200" height="200"><defs><style type="text/css">@font-face { font-family: element-icons; src: url("chrome-extension://moombeodfomdpjnpocobemoiaemednkg/fonts/element-icons.woff") format("woff"), url("chrome-extension://moombeodfomdpjnpocobemoiaemednkg/fonts/element-icons.ttf ") format("truetype"); }
</style></defs><path d="M52 520c0 258.464 209.536 468 468 468S988 778.464 988 520 778.464 52 520 52 52 261.536 52 520z m24 0c0-245.216 198.784-444 444-444S964 274.784 964 520 765.216 964 520 964 76 765.216 76 520z" p-id="7931" fill="#707070"></path><path d="M277.456 461.44c1.024 13.28 2.432 26.592 2.928 39.952 0.928 24.752-8.608 44.48-28.224 58.912a138.704 138.704 0 0 1-49.696 23.616c-21.104 5.056-38.72-12.768-33.216-34.4 3.12-12.304 7.136-24.832 13.392-35.696 15.552-26.864 25.008-55.968 32.8-85.888a94.24 94.24 0 0 1 5.76-16.32c4.224-9.024 13.84-13.712 23.04-10.88 6.64 2.08 13.12 5.008 19.328 8.368 9.824 5.28 19.392 11.28 29.088 17.008 5.92-6.512 11.616-13.408 17.744-19.728 21.616-22.064 48.288-36.064 75.424-48.976 42.56-20.224 86.336-37.376 132.384-47.168a495.6 495.6 0 0 1 64.88-9.168c25.952-2.112 51.984-2.88 78.016-2.352 33.712 0.784 66.944 5.424 97.712 21.312 16.624 8.608 30.544 20.464 33.536 39.952 2.08 13.648 1.296 28.096-0.208 41.952-2.512 23.504-11.856 45.216-20.976 66.608-2.432 5.648-8.752 10.176-14.256 13.488-13.92 8.336-29.44 12.688-45.216 15.76-44.4 8.736-87.968 4.848-130.464-10.832-25.216-9.328-45.552-26.272-64.096-45.68-1.904-1.984-3.472-4.688-5.84-5.856-2.48-1.264-6.48-2.272-8.256-1.04-1.856 1.328-2.928 5.648-2.432 8.224 0.656 3.072 2.928 6.144 5.136 8.576 26.88 29.888 59.6 49.904 98.16 59.072 46.08 10.944 91.904 10.336 137.12-5.056 2.56-0.88 5.12-1.904 7.632-3.072 2.416-1.104 4.848-2.512 8.176-3.072-4.976 7.472-9.696 15.104-14.896 22.352-35.088 48.368-80.048 82.368-136.8 99.376-36.224 10.848-72.448 9.312-108.432 0.288-60.192-15.104-115.44-41.04-163.072-82.512-14.816-12.912-28.8-26.848-38.56-44.352a85.92 85.92 0 0 1-8.784-21.472c-1.472-5.952-3.84-9.76-8.832-11.28z m438.032-147.76c-6.992 0.64-14.048 0.944-20.96 2.032-10.688 1.76-20.896 5.36-29.36 12.528-7.52 6.304-6.656 15.408 1.696 20.256 3.36 1.904 7.136 3.28 10.832 4.32 16.912 4.768 34.144 3.52 51.264 1.536 8.768-1.04 17.44-3.904 25.744-7.2 6.08-2.112 10.016-8 9.68-14.432-0.256-6.816-5.696-9.28-10.56-11.648-12.096-5.728-25.088-7.344-38.336-7.392z m-200.832 80.256c10.144 0 18.032-7.36 18.032-16.576-0.08-9.168-8.336-16.784-18.112-16.704-10.192 0.064-17.824 7.248-17.872 16.704 0 9.232 7.824 16.496 17.952 16.576z m78.48 399.248c-4.688 0-9.184 0.32-13.6-0.128-1.216-0.16-2.864-2.272-3.2-3.84-3.28-13.184-6.08-26.56-9.648-39.712a51.232 51.232 0 0 0-6.816-14.592c-4.432-6.816-11.856-7.68-16.832-1.296-4.848 6.144-9.12 13.12-12.128 20.432-4.352 10.688-7.472 21.92-10.56 33.136-1.28 4.624-2.848 7.04-7.84 6.24-2.784-0.448-5.76-0.08-9.28-0.08 0.736-19.2 1.376-37.84 2.096-58.112-4.432 2.24-7.792 3.36-10.336 5.392-6 4.864-11.712 10.048-17.12 15.552-9.696 10.176-19.104 20.752-28.512 31.28-5.92 6.608-8 7.296-18.192 4.864a14945.488 14945.488 0 0 1 36.352-63.2c-11.84-3.504-22.144-8.32-26.576-20.832-2.688-7.632-2.432-16 0.704-23.456 0.72 2.736 1.296 5.536 2.08 8.24 4 14 15.968 21.264 29.44 17.072 3.808-1.344 7.04-3.888 9.264-7.248 11.824-19.648 23.232-39.6 34.512-59.52 2.08-3.68 4.128-4.32 7.984-3.68 18.528 3.008 37.12 5.872 55.808 0.8 4.064-1.072 8-2.848 12.352-4.432 0.048 52.112 0.048 104.16 0.048 157.12z" p-id="7932" fill="#707070"></path></svg>